<?xml version="1.0" standalone="no"?>
<!DOCTYPE svg PUBLIC "-//W3C//DTD SVG 20010904//EN"
 "http://www.w3.org/TR/2001/REC-SVG-20010904/DTD/svg10.dtd">
<svg version="1.0" xmlns="http://www.w3.org/2000/svg"
 width="197.000000pt" height="204.000000pt" viewBox="0 0 197.000000 204.000000"
 preserveAspectRatio="xMidYMid meet">

<g transform="translate(0.000000,204.000000) scale(0.100000,-0.100000)"
fill="#000000" stroke="none">
<path d="M1121 1955 c-79 -22 -169 -68 -256 -130 l-76 -55 -70 21 c-128 39
-273 16 -335 -53 -41 -45 -52 -81 -59 -200 -7 -108 -6 -120 15 -163 12 -25 40
-60 61 -77 39 -31 39 -32 22 -57 -26 -40 -73 -125 -73 -134 0 -5 20 -5 45 -1
71 10 130 -3 179 -41 49 -37 96 -43 206 -27 l55 7 -49 8 c-27 4 -64 7 -83 7
-20 0 -32 4 -28 10 4 6 -5 5 -20 -2 -39 -17 -52 0 -37 50 7 22 12 61 13 88 l1
49 9 -45 c6 -25 8 -60 6 -77 -1 -18 -2 -33 -1 -33 1 0 27 11 57 25 30 14 88
33 129 41 70 15 98 16 413 10 56 -1 69 2 67 13 -17 79 -21 123 -15 161 l7 45
7 -66 c4 -37 16 -87 27 -112 18 -42 23 -45 57 -45 24 0 45 -8 60 -22 14 -13
39 -24 60 -25 30 -2 38 3 56 32 12 19 32 35 47 39 15 3 31 7 35 8 5 1 -14 31
-41 66 -51 67 -111 123 -177 161 l-37 22 38 19 c86 42 119 99 119 213 0 69 -4
86 -27 126 -34 57 -88 105 -147 132 -60 27 -186 32 -260 12z m239 -56 c94 -42
150 -122 150 -214 0 -92 -34 -147 -113 -180 -28 -12 -83 -17 -205 -20 -183 -4
-245 -15 -419 -72 -110 -35 -114 -36 -133 -18 -11 10 -20 22 -20 28 0 5 8 -1
18 -13 l19 -23 84 36 c188 81 259 97 459 106 174 8 219 22 247 75 21 39 21
122 0 161 -19 37 -61 77 -107 101 -59 32 -184 25 -290 -14 -46 -18 -110 -48
-142 -67 -32 -19 -58 -32 -58 -30 0 7 112 81 160 105 121 62 264 78 350 39z
m-631 -160 c35 -11 111 -42 170 -68 139 -63 170 -72 260 -81 l76 -7 -85 -2
c-76 -1 -98 4 -200 40 -253 89 -289 99 -353 99 -116 -1 -176 -48 -178 -142 -1
-24 -2 -68 -3 -98 -1 -71 20 -105 82 -132 69 -31 115 -27 207 15 126 57 245
88 365 93 61 4 122 1 145 -5 l40 -11 -43 5 c-115 14 -325 -36 -492 -117 -95
-46 -109 -50 -156 -45 -135 14 -221 117 -195 235 5 26 7 50 4 55 -12 19 11 91
40 124 64 73 170 87 316 42z m541 -84 c0 -13 -4 -26 -9 -29 -4 -3 -6 6 -3 19
2 15 0 25 -7 25 -6 0 -11 -5 -11 -12 0 -6 -3 -8 -6 -5 -9 9 16 38 27 31 5 -3
9 -16 9 -29z m100 22 c0 -17 -29 -57 -41 -57 -6 0 -3 7 5 16 33 33 9 47 -28
17 -15 -13 -14 -10 3 10 25 28 61 37 61 14z m-52 -93 c26 -18 20 -35 -11 -33
-17 1 -18 2 -4 6 23 6 21 18 -5 31 -13 6 -18 11 -13 11 6 1 21 -6 33 -15z
m-152 -231 c-1 -43 2 -94 6 -113 l7 -35 -17 35 c-10 21 -16 62 -17 102 0 72
-3 76 -49 58 -38 -14 -32 -2 7 15 60 27 64 23 63 -62z m98 35 c-4 -18 -7 -64
-7 -102 1 -42 -2 -64 -7 -56 -15 24 -21 104 -11 138 10 33 10 34 -17 28 -26
-6 -26 -6 -8 9 11 8 28 15 39 15 16 0 18 -5 11 -32z m177 -16 c24 -16 65 -52
91 -81 l48 -53 -26 -27 c-28 -30 -64 -32 -94 -5 -8 7 -28 16 -44 20 -34 8 -56
54 -56 117 0 67 13 72 81 29z m-880 -139 c26 -5 29 -9 29 -47 0 -62 -9 -70
-55 -50 -21 9 -56 14 -77 12 -34 -3 -37 -2 -32 17 4 11 18 35 31 53 21 27 30
32 50 27 14 -3 38 -9 54 -12z"/>
<path d="M1780 1183 c-8 -3 -23 -13 -33 -21 -13 -12 -20 -13 -29 -4 -18 18
-84 15 -104 -5 -9 -10 -23 -31 -30 -48 -11 -27 -17 -31 -42 -27 -16 2 -38 -1
-49 -6 -16 -9 -24 -5 -46 24 -31 38 -51 42 -86 18 -15 -11 -34 -14 -56 -11
-23 4 -45 -1 -71 -15 -34 -18 -37 -18 -24 -2 14 16 13 17 -5 10 -31 -12 -171
-35 -257 -42 l-77 -6 -11 -34 c-12 -34 -13 -35 -31 -18 -17 15 -25 16 -67 5
-26 -6 -73 -11 -105 -11 -53 1 -62 5 -92 35 -66 65 -203 69 -333 10 -141 -64
-207 -202 -132 -277 25 -25 37 -29 66 -26 32 4 35 2 30 -16 -3 -12 -6 -27 -6
-33 0 -7 -13 -19 -29 -27 -73 -38 -63 -187 15 -216 20 -8 24 -15 18 -28 -41
-96 23 -157 103 -96 40 30 111 63 173 79 44 11 46 10 95 -27 63 -49 171 -101
255 -125 89 -24 299 -24 390 1 160 43 313 145 403 269 27 36 57 69 66 72 31
10 84 69 108 121 12 28 34 97 48 155 14 57 37 139 51 181 15 44 23 86 19 98
-11 36 -80 60 -125 43z m75 -53 c4 -6 -3 -38 -14 -73 -11 -34 -33 -115 -50
-180 -16 -66 -40 -140 -53 -165 -28 -54 -78 -92 -121 -92 l-31 0 26 28 c33 35
51 72 77 152 38 124 37 119 7 83 -15 -18 -42 -38 -61 -44 -21 -8 -36 -21 -40
-36 -3 -12 -21 -38 -40 -58 -28 -28 -44 -35 -74 -35 -31 0 -40 5 -49 25 -17
36 -14 67 12 168 l22 87 -22 0 c-17 0 -27 -15 -55 -87 -50 -131 -122 -197
-194 -179 -14 4 -33 15 -42 26 -16 19 -17 18 -40 -15 -24 -35 -69 -65 -97 -65
-47 0 -58 66 -27 155 11 30 16 55 12 55 -26 0 -70 -92 -74 -155 -4 -52 -38
-66 -71 -30 l-22 24 -17 -28 c-16 -27 -70 -61 -98 -61 -21 0 -49 32 -49 57 0
22 -3 21 -38 -17 -40 -42 -85 -53 -110 -28 -9 9 -13 7 -18 -8 -4 -10 -18 -34
-32 -53 l-25 -33 34 7 c19 4 40 15 47 25 10 14 22 17 48 13 24 -4 40 -1 53 11
16 15 21 15 56 0 45 -18 91 -13 128 16 17 14 33 18 58 14 25 -4 41 -1 59 14
22 18 27 18 59 5 42 -18 91 -10 117 18 15 17 26 19 66 14 75 -11 124 2 164 41
24 24 34 30 34 19 0 -9 13 -30 29 -46 16 -16 25 -29 20 -29 -6 0 -21 12 -35
27 l-24 26 -23 -20 c-39 -36 -68 -46 -136 -45 -49 0 -72 -5 -90 -19 -29 -23
-77 -32 -116 -21 -21 6 -41 4 -64 -6 -19 -7 -46 -12 -60 -9 -14 3 -40 -3 -60
-14 -40 -21 -86 -24 -127 -9 -18 7 -37 8 -55 1 -17 -6 -41 -6 -58 -1 -21 6
-31 5 -34 -5 -11 -27 585 -40 723 -16 138 24 282 89 369 165 l25 21 -23 -32
c-60 -87 -207 -174 -361 -214 -77 -20 -113 -22 -385 -24 -250 -1 -313 -5 -375
-20 -98 -23 -162 -49 -217 -86 -75 -52 -79 -5 -8 79 l26 31 -48 -5 c-65 -8
-103 20 -103 75 0 20 6 46 14 56 13 18 14 18 26 -5 12 -22 14 -17 35 66 28
109 80 248 101 265 11 9 21 9 39 1 31 -14 31 -14 1 -90 -14 -34 -20 -62 -14
-62 26 0 80 35 98 65 42 68 11 135 -64 135 -84 0 -157 -60 -172 -141 -9 -46
-21 -59 -55 -59 -62 0 -74 59 -25 128 34 48 82 80 154 102 147 46 262 8 262
-87 l0 -32 36 24 c38 26 98 33 109 14 5 -6 13 -3 22 10 15 23 52 28 70 10 7
-7 5 -28 -8 -71 -18 -57 -25 -128 -13 -128 16 0 45 24 57 48 8 15 24 68 36
117 12 50 25 96 29 101 5 9 92 28 92 21 0 -1 -7 -23 -15 -50 l-14 -47 37 29
c51 40 79 47 102 26 22 -20 18 -35 -9 -35 -11 0 -29 -8 -42 -19 -22 -18 -22
-19 -5 -36 14 -14 16 -27 11 -66 -6 -44 -5 -49 13 -49 27 0 49 28 71 92 38
111 74 155 134 165 30 4 37 2 52 -21 37 -57 -9 -146 -76 -146 -24 0 -29 -4
-29 -24 0 -50 58 -59 99 -15 11 12 32 51 46 87 24 60 25 66 10 83 -20 22 -12
54 17 70 18 9 24 8 35 -7 7 -10 10 -26 7 -36 -5 -17 0 -19 58 -16 73 3 72 6
42 -103 -20 -74 -15 -106 15 -90 15 9 19 25 23 93 6 109 41 202 78 206 46 4
54 -9 37 -64 -28 -88 -29 -104 -11 -111 25 -9 60 36 80 104 10 32 22 64 27 71
11 15 63 16 72 2z m-274 -569 c-13 -24 -111 -113 -168 -152 -58 -41 -154 -83
-234 -105 -87 -24 -250 -24 -349 -1 -78 18 -221 83 -227 104 -6 17 135 27 236
17 134 -14 336 -9 416 10 102 24 192 62 255 106 62 44 87 51 71 21z"/>
<path d="M1268 983 c-21 -25 -41 -64 -35 -70 21 -20 85 43 73 72 -7 20 -19 19
-38 -2z"/>
<path d="M642 877 c-48 -51 -70 -157 -34 -157 37 0 82 79 82 145 0 41 -17 46
-48 12z"/>
<path d="M499 787 c-9 -7 -14 -18 -12 -24 7 -21 20 -15 25 12 3 14 5 25 4 25
0 0 -8 -6 -17 -13z"/>
<path d="M348 738 c-16 -13 -54 -146 -44 -155 11 -11 67 20 96 54 35 40 40 87
11 103 -26 13 -44 13 -63 -2z"/>
<path d="M850 1125 c-47 -8 -103 -21 -125 -30 l-40 -15 45 4 c25 3 134 13 243
23 109 9 190 21 180 24 -30 12 -212 8 -303 -6z"/>
<path d="M1521 284 l-32 -27 32 -33 c18 -18 36 -31 41 -27 6 3 5 10 -1 16 -8
8 -5 18 11 34 17 18 20 28 12 40 -16 26 -29 26 -63 -3z m36 -31 c-14 -14 -19
-15 -29 -4 -11 10 -9 15 6 27 27 20 47 0 23 -23z"/>
<path d="M1416 209 c-31 -25 -33 -49 -6 -74 19 -18 22 -18 56 -2 41 20 51 39
36 73 -14 30 -50 32 -86 3z m72 -25 c4 -28 -41 -53 -63 -34 -20 17 -19 37 3
49 26 16 57 9 60 -15z"/>
<path d="M505 196 c-8 -13 -13 -30 -10 -39 7 -17 62 -43 72 -34 3 4 -6 11 -20
16 -34 13 -42 30 -23 49 13 14 21 14 46 5 33 -12 41 0 11 17 -32 16 -59 12
-76 -14z"/>
<path d="M612 135 l-37 -35 31 6 c25 5 37 1 54 -16 12 -12 23 -20 25 -18 2 1
1 24 -2 51 -7 57 -20 60 -71 12z m48 0 c0 -8 -7 -15 -16 -15 -14 0 -14 3 -4
15 7 8 14 15 16 15 2 0 4 -7 4 -15z"/>
<path d="M1344 152 c9 -27 -39 -49 -53 -24 -19 33 -24 2 -6 -38 18 -40 38 -47
28 -10 -7 27 36 45 54 22 20 -25 25 -7 9 32 -15 36 -42 52 -32 18z"/>
<path d="M729 113 c-5 -16 -12 -33 -14 -40 -8 -23 14 -24 26 -2 l12 23 13 -26
c7 -14 21 -28 30 -32 15 -6 15 -5 0 18 -21 33 -20 43 4 51 11 4 18 11 15 16
-4 5 -20 2 -37 -7 -30 -16 -31 -15 -25 5 8 31 -12 26 -24 -6z"/>
<path d="M1192 119 c-35 -13 -25 -43 16 -47 38 -4 42 -17 7 -26 -14 -4 -25
-10 -25 -15 0 -6 13 -6 32 0 18 5 34 9 36 9 2 0 2 10 0 23 -2 17 -11 23 -36
25 -34 3 -35 22 -1 22 10 0 19 5 19 10 0 12 -17 12 -48 -1z"/>
<path d="M844 83 c-9 -48 0 -63 38 -62 l33 1 -27 11 c-35 14 -37 31 -3 25 14
-3 25 -2 25 3 0 4 -10 9 -22 11 -13 2 -22 8 -20 13 2 6 14 9 27 7 14 -2 25 1
25 6 0 5 -16 12 -35 14 -33 4 -35 2 -41 -29z"/>
<path d="M1003 85 c-3 -9 -3 -19 1 -22 3 -3 1 -12 -5 -19 -19 -23 1 -34 59
-34 33 0 52 4 44 8 -7 5 -10 16 -6 25 3 9 2 17 -4 17 -6 0 -12 -5 -14 -12 -3
-7 -10 -8 -17 -4 -10 7 -11 10 -1 16 7 4 10 15 7 24 -8 20 -56 21 -64 1z m45
-7 c-6 -18 -28 -21 -28 -4 0 9 7 16 16 16 9 0 14 -5 12 -12z m-3 -48 c3 -6 -1
-10 -9 -10 -8 0 -18 5 -21 10 -3 6 1 10 9 10 8 0 18 -4 21 -10z"/>
</g>
</svg>
